<svg width="848" height="414" viewBox="0 0 848 414" fill="none" xmlns="http://www.w3.org/2000/svg">
<g clip-path="url(#clip0_206_8)">
<circle cx="287" cy="118" r="32" fill="#FFBCBC"/>
<path d="M75.5938 19.375C86.9219 19.375 96.5898 23.3789 104.598 31.3867C112.605 39.3945 116.609 49.0625 116.609 60.3906V72.1094C116.609 83.4375 112.605 93.1055 104.598 101.113C96.5898 109.121 86.9219 113.125 75.5938 113.125H46.2969V160H22.8594V19.375H75.5938ZM93.1719 60.3906C93.1719 55.5078 91.4466 51.3737 87.9961 47.9883C84.6107 44.5378 80.4766 42.8125 75.5938 42.8125H46.2969V89.6875H75.5938C80.4766 89.6875 84.6107 87.9948 87.9961 84.6094C91.4466 81.1589 93.1719 76.9922 93.1719 72.1094V60.3906ZM181.062 19.375C192.391 19.375 202.059 23.3789 210.066 31.3867C218.074 39.3945 222.078 49.0625 222.078 60.3906V72.1094C222.078 83.4375 218.074 93.1055 210.066 101.113C202.97 108.21 194.604 112.148 184.969 112.93L222.078 160H192.293L155.281 113.125H151.766V160H128.328V19.375H181.062ZM198.641 60.3906C198.641 55.5078 196.915 51.3737 193.465 47.9883C190.079 44.5378 185.945 42.8125 181.062 42.8125H151.766V89.6875H181.062C185.945 89.6875 190.079 87.9948 193.465 84.6094C196.915 81.1589 198.641 76.9922 198.641 72.1094V60.3906ZM304.109 160C284.708 160 268.139 153.132 254.402 139.395C240.665 125.658 233.797 109.089 233.797 89.6875C233.797 70.2865 240.665 53.7174 254.402 39.9805C268.139 26.2435 284.708 19.375 304.109 19.375C323.51 19.375 340.079 26.2435 353.816 39.9805C367.553 53.7174 374.422 70.2865 374.422 89.6875C374.422 109.089 367.553 125.658 353.816 139.395C340.079 153.132 323.51 160 304.109 160ZM304.109 136.562C317.065 136.562 328.1 132.005 337.215 122.891C346.395 113.711 350.984 102.643 350.984 89.6875C350.984 76.7318 346.395 65.6966 337.215 56.582C328.1 47.4023 317.065 42.8125 304.109 42.8125C291.154 42.8125 280.086 47.4023 270.906 56.582C261.792 65.6966 257.234 76.7318 257.234 89.6875C257.234 102.643 261.792 113.711 270.906 122.891C280.086 132.005 291.154 136.562 304.109 136.562ZM444.734 89.6875C444.734 109.089 437.866 125.658 424.129 139.395C410.392 153.132 393.823 160 374.422 160V136.562C387.378 136.562 398.413 132.005 407.527 122.891C416.707 113.711 421.297 102.643 421.297 89.6875V19.375H444.734V89.6875ZM597.078 19.375V42.8125H479.891V77.9688H573.641V101.406H479.891V136.562H597.078V160H456.453V19.375H597.078ZM679.109 136.562V160C659.708 160 643.139 153.132 629.402 139.395C615.665 125.658 608.797 109.089 608.797 89.6875C608.797 70.2865 615.665 53.7174 629.402 39.9805C643.139 26.2435 659.708 19.375 679.109 19.375V42.8125C666.154 42.8125 655.086 47.4023 645.906 56.582C636.792 65.6966 632.234 76.7318 632.234 89.6875C632.234 102.643 636.792 113.711 645.906 122.891C655.086 132.005 666.154 136.562 679.109 136.562ZM831.453 19.375V42.8125H772.859V160H749.422V42.8125H690.828V19.375H831.453ZM75.5938 249.375C86.9219 249.375 96.5898 253.379 104.598 261.387C112.605 269.395 116.609 279.062 116.609 290.391V302.109C116.609 313.438 112.605 323.105 104.598 331.113C97.5013 338.21 89.1354 342.148 79.5 342.93L116.609 390H86.8242L49.8125 343.125H46.2969V390H22.8594V249.375H75.5938ZM93.1719 290.391C93.1719 285.508 91.4466 281.374 87.9961 277.988C84.6107 274.538 80.4766 272.812 75.5938 272.812H46.2969V319.688H75.5938C80.4766 319.688 84.6107 317.995 87.9961 314.609C91.4466 311.159 93.1719 306.992 93.1719 302.109V290.391ZM268.953 249.375V272.812H210.359V390H186.922V272.812H128.328V249.375H268.953ZM321.688 249.375H345.125V272.812H321.688C316.805 272.812 312.638 274.538 309.188 277.988C305.802 281.374 304.109 285.508 304.109 290.391C304.109 295.273 305.802 299.44 309.188 302.891C312.638 306.276 316.805 307.969 321.688 307.969C333.016 307.969 342.684 311.973 350.691 319.98C358.699 327.988 362.703 337.656 362.703 348.984C362.703 360.312 358.699 369.98 350.691 377.988C342.684 385.996 333.016 390 321.688 390H280.672V366.562H321.688C326.57 366.562 330.704 364.87 334.09 361.484C337.54 358.034 339.266 353.867 339.266 348.984C339.266 344.102 337.54 339.967 334.09 336.582C330.704 333.132 326.57 331.406 321.688 331.406C310.359 331.406 300.691 327.402 292.684 319.395C284.676 311.387 280.672 301.719 280.672 290.391C280.672 279.062 284.676 269.395 292.684 261.387C300.691 253.379 310.359 249.375 321.688 249.375ZM397.859 279.062V390H374.422V249.375H404.207L491.609 360.312V249.375H515.047V390H485.262L397.859 279.062Z" fill="#2B2B2B"/>
</g>
<defs>
<clipPath id="clip0_206_8">
<rect width="848" height="414" fill="white"/>
</clipPath>
</defs>
</svg>